<?xml version="1.0" encoding="UTF-8" standalone="no"?>
<!-- Generator: Adobe Illustrator 12.0.0, SVG Export Plug-In . SVG Version: 6.00 Build 51448)  -->

<svg
   xmlns:dc="http://purl.org/dc/elements/1.1/"
   xmlns:cc="http://creativecommons.org/ns#"
   xmlns:rdf="http://www.w3.org/1999/02/22-rdf-syntax-ns#"
   xmlns:svg="http://www.w3.org/2000/svg"
   xmlns="http://www.w3.org/2000/svg"
   xmlns:sodipodi="http://sodipodi.sourceforge.net/DTD/sodipodi-0.dtd"
   xmlns:inkscape="http://www.inkscape.org/namespaces/inkscape"
   version="1.1"
   id="Layer_1"
   width="143.82201"
   height="40.233002"
   viewBox="0 0 143.82201 40.233002"
   overflow="visible"
   enable-background="new 0 0 960 560"
   xml:space="preserve"
   sodipodi:docname="logo_white.svg"
   style="overflow:visible"
   inkscape:version="0.92.4 (5da689c313, 2019-01-14)"><metadata
   id="metadata3761"><rdf:RDF><cc:Work
       rdf:about=""><dc:format>image/svg+xml</dc:format><dc:type
         rdf:resource="http://purl.org/dc/dcmitype/StillImage" /><dc:title></dc:title></cc:Work></rdf:RDF></metadata><defs
   id="defs3759" /><sodipodi:namedview
   pagecolor="#ffffff"
   bordercolor="#666666"
   borderopacity="1"
   objecttolerance="10"
   gridtolerance="10"
   guidetolerance="10"
   inkscape:pageopacity="0"
   inkscape:pageshadow="2"
   inkscape:window-width="2560"
   inkscape:window-height="1377"
   id="namedview3757"
   showgrid="false"
   fit-margin-top="0"
   fit-margin-left="0"
   fit-margin-right="0"
   fit-margin-bottom="0"
   inkscape:zoom="2.1571429"
   inkscape:cx="-11.608616"
   inkscape:cy="16.333"
   inkscape:window-x="-8"
   inkscape:window-y="-8"
   inkscape:window-maximized="1"
   inkscape:current-layer="Layer_1" />
<path
   d="m 62.595,38.450996 c -0.37,0.169 -0.999,0.318 -1.813,0.318 -1.601,0 -2.841,-0.867 -2.841,-2.655 0,-1.22 0.585,-2.22 1.496,-2.821 0.654,-0.451 1.433,-0.699 2.379,-0.699 0.779,0 1.328,0.187 1.522,0.318 l -0.31,0.85 c -0.222,-0.124 -0.707,-0.257 -1.327,-0.257 -0.636,0 -1.247,0.195 -1.699,0.567 -0.548,0.424 -0.894,1.113 -0.894,1.936 0,1.054 0.62,1.85 1.957,1.85 0.503,0 1.017,-0.088 1.387,-0.266 z"
   id="path3738"
   inkscape:connector-curvature="0"
   style="fill:#ffffff" />
<path
   d="m 64.26,32.806996 c 0.396,-0.1 1.018,-0.151 1.591,-0.151 0.611,0 1.204,0.105 1.603,0.381 0.37,0.229 0.627,0.601 0.627,1.123 0,0.885 -0.653,1.442 -1.433,1.671 v 0.028 c 0.397,0.147 0.574,0.572 0.638,1.098 0.088,0.751 0.142,1.451 0.247,1.706 h -1.115 c -0.044,-0.132 -0.124,-0.69 -0.194,-1.415 -0.062,-0.762 -0.363,-1.034 -0.938,-1.034 h -0.602 l -0.47,2.449 h -1.07 z m 0.573,2.601 h 0.691 c 0.857,0 1.435,-0.462 1.435,-1.081 0,-0.609 -0.532,-0.822 -1.144,-0.822 -0.31,0 -0.495,0.027 -0.628,0.063 z"
   id="path3740"
   inkscape:connector-curvature="0"
   style="fill:#ffffff" />
<path
   d="m 73.629,38.662996 0.389,-2.796 c 0.096,-0.655 0.237,-1.582 0.39,-2.327 h -0.019 c -0.336,0.691 -0.716,1.505 -1.089,2.204 l -1.556,2.848 h -0.859 l -0.37,-2.777 c -0.081,-0.734 -0.151,-1.558 -0.196,-2.274 h -0.017 c -0.16,0.674 -0.362,1.682 -0.521,2.327 l -0.7,2.796 h -1.009 l 1.532,-5.963 h 1.484 l 0.372,2.68 c 0.053,0.559 0.143,1.205 0.159,1.806 h 0.026 c 0.24,-0.601 0.559,-1.257 0.833,-1.795 l 1.485,-2.691 h 1.521 l -0.787,5.964 h -1.068 z"
   id="path3742"
   inkscape:connector-curvature="0"
   style="fill:#ffffff" />
<path
   d="m 19.952,5.6939966 c -9.53,0 -17.27,7.7399994 -17.27,17.2699994 0,9.528 7.74,17.269 17.27,17.269 9.528,0 17.268,-7.74 17.268,-17.269 0,-9.53 -7.74,-17.2699994 -17.268,-17.2699994 m 0,32.5589994 c -8.438,0 -15.29,-6.853 -15.29,-15.289 0,-8.438 6.853,-15.2909994 15.29,-15.2909994 8.436,0 15.289,6.8529994 15.289,15.2909994 0,8.436 -6.853,15.289 -15.289,15.289"
   id="path3744"
   inkscape:connector-curvature="0"
   style="fill:#ffffff" />
<path
   d="m 20.316,18.011996 c -2.431,0 -3.924,2.051 -4.305,3.515 4.012,0.03 6.355,-0.352 6.355,-2.021 v -0.03 c 0.001,-0.878 -0.849,-1.464 -2.05,-1.464"
   id="path3746"
   inkscape:connector-curvature="0"
   style="fill:#ffffff" />
<path
   d="m 31.974,23.804996 c -2.44,-3.728 -4.669,-7.589 -6.677,-11.565 C 23.288,8.2629966 21.503,4.1769966 19.951,-3.4179688e-6 18.398,4.1759966 16.614,8.2629966 14.605,12.239996 c -2.009,3.977 -4.238,7.838 -6.678,11.565 -2.44,3.727 -5.086,7.317 -7.927,10.749 4.393,-0.743 8.824,-1.239 13.273,-1.49 4.448,-0.248 8.906,-0.248 13.355,0 4.447,0.251 8.879,0.747 13.272,1.49 -2.839,-3.431 -5.486,-7.022 -7.926,-10.749 m -16.314,0.359 c -0.058,0.527 0.118,1.436 0.439,1.962 0.644,1.025 1.787,1.494 3.223,1.494 1.729,0 3.222,-0.439 4.306,-0.995 l 0.351,2.547 c -1.493,0.792 -3.662,1.23 -5.477,1.23 -4.159,0 -6.298,-2.461 -6.298,-6.151 0,-4.394 3.485,-8.817 8.553,-8.817 2.958,0 5.039,1.553 5.039,4.131 -0.002,3.66 -4.103,4.745 -10.136,4.599"
   id="path3748"
   inkscape:connector-curvature="0"
   style="fill:#ffffff" />
<path
   d="m 41.213,30.049996 -1.259,-19.742 h 3.544 l 0.41,10.164 c 0.088,2.577 0.088,4.453 0.088,5.857 h 0.058 c 0.616,-1.552 1.229,-3.25 2.344,-5.799 l 4.54,-10.222 h 4.072 l 0.264,9.93 c 0.057,2.577 0.057,4.453 0,6.005 h 0.057 c 0.674,-1.875 1.407,-3.809 2.227,-5.801 l 4.513,-10.134 h 3.806 l -9.461,19.742 h -3.895 l -0.382,-9.783 c -0.086,-2.46 -0.059,-3.924 0.06,-6.297 H 52.11 c -0.702,2.05 -1.318,3.867 -2.226,5.976 l -4.657,10.105 h -4.014 z"
   id="path3750"
   inkscape:connector-curvature="0"
   style="fill:#ffffff" />
<path
   d="m 72.703,30.049996 c 0,-0.879 0.117,-2.138 0.263,-3.426 h -0.059 c -1.466,2.781 -3.544,3.777 -5.595,3.777 -2.754,0 -4.658,-2.139 -4.658,-5.096 0,-5.067 3.78,-9.873 10.721,-9.873 1.642,0 3.457,0.322 4.688,0.674 l -1.435,7.235 c -0.44,2.256 -0.645,4.98 -0.587,6.708 h -3.338 z m 1.347,-11.686 c -0.352,-0.087 -0.879,-0.176 -1.61,-0.176 -3.281,0 -6.034,3.076 -6.034,6.532 0,1.493 0.674,2.812 2.343,2.812 1.729,0 3.924,-1.903 4.627,-5.858 z"
   id="path3752"
   inkscape:connector-curvature="0"
   style="fill:#ffffff" />
<path
   d="m 83.189,15.785996 1.377,6.708 c 0.322,1.61 0.557,2.694 0.702,3.604 h 0.059 c 0.352,-0.793 0.731,-1.729 1.465,-3.341 l 3.222,-6.972 h 3.808 l -5.359,10.223 c -1.847,3.546 -3.457,6.034 -5.39,7.967 -1.875,1.875 -4.071,2.609 -5.038,2.726 l -0.674,-3.076 c 0.644,-0.176 1.728,-0.527 2.694,-1.23 0.996,-0.703 1.905,-1.669 2.636,-2.899 0.147,-0.234 0.118,-0.381 0.059,-0.674 l -3.309,-13.035 h 3.748 z"
   id="path3754"
   inkscape:connector-curvature="0"
   style="fill:#ffffff" />
</svg>